# Blender 4.0.2
# www.blender.org
mtllib center.mtl
o Cube
v -1.000000 -1.000000 1.000000
v -1.000000 1.000000 1.000000
v -1.000000 -1.000000 -7.980398
v -1.000000 1.000000 -7.980398
v -0.029534 -1.000000 1.000000
v -0.029534 1.000000 1.000000
v -0.029534 -1.000000 -7.980398
v -0.029534 1.000000 -7.980398
v -1.000000 -1.000000 -0.042029
v -1.000000 1.000000 -0.042029
v -0.029534 -1.000000 -0.042029
v -0.029534 1.000000 -0.042029
v -1.000000 1.000000 -6.994422
v -0.029534 -1.000000 -6.994422
v -1.000000 -1.000000 -6.994422
v -0.029534 1.000000 -6.994422
v 7.956781 1.000000 -7.980398
v 7.956781 -1.000000 -7.980398
v 7.956781 -1.000000 -6.994422
v 7.956781 1.000000 -0.042029
v 7.956781 1.000000 1.000000
v 7.956781 -1.000000 1.000000
v 7.956781 -1.000000 -0.042029
v 7.956781 1.000000 -6.994422
v 7.021674 1.000000 -7.980398
v 7.021674 -1.000000 -7.980398
v 7.021674 -1.000000 -6.994422
v 7.021674 1.000000 -6.994422
v 7.021674 1.000000 1.000000
v 7.021674 1.000000 -0.042029
v 7.021674 -1.000000 1.000000
v 7.021674 -1.000000 -0.042029
v 7.956781 1.000000 -4.037464
v 7.956781 -1.000000 -4.037464
v 7.021674 -1.000000 -4.037464
v 7.021674 1.000000 -4.037464
v 7.956781 1.000000 -3.024261
v 7.956781 -1.000000 -3.024261
v 7.021674 1.000000 -3.024261
v 7.021674 -1.000000 -3.024261
vn -1.0000 -0.0000 -0.0000
vn -0.0000 -0.0000 -1.0000
vn -0.0000 -0.0000 1.0000
vn -0.0000 -1.0000 -0.0000
vn -0.0000 1.0000 -0.0000
vn 1.0000 -0.0000 -0.0000
vt 0.625000 0.222552
vt 0.375000 0.250000
vt 0.375000 0.222552
vt 0.625000 0.250000
vt 0.375000 0.500000
vt 0.625000 0.500000
vt 0.375000 0.500000
vt 0.625000 0.750000
vt 0.375000 1.000000
vt 0.375000 0.750000
vt 0.375000 0.720992
vt 0.125000 0.750000
vt 0.125000 0.720992
vt 0.875000 0.720992
vt 0.625000 0.720992
vt 0.875000 0.527448
vt 0.625000 0.527448
vt 0.375000 0.527448
vt 0.125000 0.527448
vt 0.625000 0.000000
vt 0.375000 0.029008
vt 0.375000 0.000000
vt 0.125000 0.500000
vt 0.875000 0.500000
vt 0.625000 0.500000
vt 0.625000 0.029008
vt 0.375000 0.527448
vt 0.625000 0.527448
vt 0.375000 0.720992
vt 0.625000 1.000000
vt 0.875000 0.750000
s 0
f 13/1/1 3/2/1 15/3/1
f 4/4/2 7/5/2 3/2/2
f 25/6/2 18/5/2 26/7/2
f 6/8/3 1/9/3 5/10/3
f 11/11/4 1/12/4 9/13/4
f 10/14/5 6/8/5 12/15/5
f 13/16/5 12/15/5 16/17/5
f 14/18/4 9/13/4 15/19/4
f 16/17/6 11/11/6 14/18/6
f 2/20/1 9/21/1 1/22/1
f 29/8/5 20/15/5 30/15/5
f 7/5/4 15/19/4 3/23/4
f 4/24/5 16/17/5 8/25/5
f 10/26/1 15/3/1 9/21/1
f 20/15/6 22/10/6 23/11/6
f 17/25/6 19/18/6 18/5/6
f 27/27/1 36/28/1 28/28/1
f 31/10/3 21/8/3 29/8/3
f 30/15/1 40/29/1 32/29/1
f 26/7/4 19/18/4 27/27/4
f 32/29/4 22/10/4 31/10/4
f 28/28/5 17/25/5 25/6/5
f 16/17/5 25/6/5 8/25/5
f 7/5/4 27/27/4 14/18/4
f 14/18/3 28/28/3 16/17/3
f 8/25/2 26/7/2 7/5/2
f 11/11/4 31/10/4 5/10/4
f 12/15/2 32/29/2 11/11/2
f 5/10/3 29/8/3 6/8/3
f 6/8/5 30/15/5 12/15/5
f 35/27/3 33/17/3 36/28/3
f 24/17/6 34/18/6 19/18/6
f 19/18/4 35/27/4 27/27/4
f 28/28/5 33/17/5 24/17/5
f 39/15/2 38/11/2 40/29/2
f 23/11/6 37/15/6 20/15/6
f 32/29/4 38/11/4 23/11/4
f 20/15/5 39/15/5 30/15/5
f 13/1/1 4/4/1 3/2/1
f 4/4/2 8/25/2 7/5/2
f 25/6/2 17/25/2 18/5/2
f 6/8/3 2/30/3 1/9/3
f 11/11/4 5/10/4 1/12/4
f 10/14/5 2/31/5 6/8/5
f 13/16/5 10/14/5 12/15/5
f 14/18/4 11/11/4 9/13/4
f 16/17/6 12/15/6 11/11/6
f 2/20/1 10/26/1 9/21/1
f 29/8/5 21/8/5 20/15/5
f 7/5/4 14/18/4 15/19/4
f 4/24/5 13/16/5 16/17/5
f 10/26/1 13/1/1 15/3/1
f 20/15/6 21/8/6 22/10/6
f 17/25/6 24/17/6 19/18/6
f 27/27/1 35/27/1 36/28/1
f 31/10/3 22/10/3 21/8/3
f 30/15/1 39/15/1 40/29/1
f 26/7/4 18/5/4 19/18/4
f 32/29/4 23/11/4 22/10/4
f 28/28/5 24/17/5 17/25/5
f 16/17/5 28/28/5 25/6/5
f 7/5/4 26/7/4 27/27/4
f 14/18/3 27/27/3 28/28/3
f 8/25/2 25/6/2 26/7/2
f 11/11/4 32/29/4 31/10/4
f 12/15/2 30/15/2 32/29/2
f 5/10/3 31/10/3 29/8/3
f 6/8/5 29/8/5 30/15/5
f 35/27/3 34/18/3 33/17/3
f 24/17/6 33/17/6 34/18/6
f 19/18/4 34/18/4 35/27/4
f 28/28/5 36/28/5 33/17/5
f 39/15/2 37/15/2 38/11/2
f 23/11/6 38/11/6 37/15/6
f 32/29/4 40/29/4 38/11/4
f 20/15/5 37/15/5 39/15/5
