# Blender 4.0.2
# www.blender.org
mtllib mazeFloorRight.mtl
o Plane
v -1.000000 0.000000 0.500000
v 1.000000 0.000000 0.500000
v -1.000000 0.000000 -0.500000
v 1.000000 0.000000 -0.500000
v -0.913246 0.000000 0.500000
v -0.913246 0.000000 -0.500000
v 0.930734 0.000000 0.500000
v 0.930734 0.000000 -0.500000
v -1.000000 0.000000 0.431662
v 1.000000 0.000000 0.431662
v -0.913246 0.000000 0.431662
v 0.930734 0.000000 0.431662
v 1.000000 0.000000 -0.409532
v -0.913246 0.000000 -0.409532
v 0.930734 0.000000 -0.409532
v -1.000000 0.000000 -0.409532
v 0.930734 1.149519 0.500000
v 1.000000 1.149519 0.500000
v 1.000000 1.149519 -0.409532
v 1.000000 1.149519 -0.500000
v 0.930734 1.149519 -0.500000
v 0.930734 1.149519 -0.409532
v 1.000000 1.149519 0.431662
v 0.930734 1.149519 0.431662
vn -0.0000 -0.0000 -1.0000
vn -0.0000 1.0000 -0.0000
vn -1.0000 -0.0000 -0.0000
vn -0.0000 -0.0000 1.0000
vn 1.0000 -0.0000 -0.0000
vt 0.000000 0.000000
vt 0.043377 0.909532
vt 0.000000 1.000000
vt 0.000000 0.909532
vt 0.965367 0.909532
vt 0.043377 1.000000
vt 0.965367 0.000000
vt 0.043377 0.068338
vt 0.043377 0.000000
vt 0.000000 0.068338
vt 0.965367 0.068338
vt 1.000000 0.909532
vt 0.965367 1.000000
vt 1.000000 0.000000
vt 1.000000 0.068338
vt 1.000000 1.000000
s 0
f 8/1/1 20/1/1 4/1/1
f 14/2/2 3/3/2 16/4/2
f 15/5/2 6/6/2 14/2/2
f 7/7/2 11/8/2 5/9/2
f 5/9/2 9/10/2 1/1/2
f 12/11/3 22/5/3 15/5/3
f 12/11/2 14/2/2 11/8/2
f 11/8/2 16/4/2 9/10/2
f 2/1/4 17/1/4 7/1/4
f 19/12/2 21/13/2 22/5/2
f 18/14/2 24/11/2 17/7/2
f 23/15/2 22/5/2 24/11/2
f 13/1/5 23/1/5 10/1/5
f 7/7/3 24/11/3 12/11/3
f 4/1/5 19/1/5 13/1/5
f 10/1/5 18/1/5 2/1/5
f 15/5/3 21/13/3 8/13/3
f 8/1/1 21/1/1 20/1/1
f 14/2/2 6/6/2 3/3/2
f 15/5/2 8/13/2 6/6/2
f 7/7/2 12/11/2 11/8/2
f 5/9/2 11/8/2 9/10/2
f 12/11/3 24/11/3 22/5/3
f 12/11/2 15/5/2 14/2/2
f 11/8/2 14/2/2 16/4/2
f 2/1/4 18/1/4 17/1/4
f 19/12/2 20/16/2 21/13/2
f 18/14/2 23/15/2 24/11/2
f 23/15/2 19/12/2 22/5/2
f 13/1/5 19/1/5 23/1/5
f 7/7/3 17/7/3 24/11/3
f 4/1/5 20/1/5 19/1/5
f 10/1/5 23/1/5 18/1/5
f 15/5/3 22/5/3 21/13/3
