# Blender 4.0.2
# www.blender.org
mtllib mazeFloorRightLeft.mtl
o Plane
v -1.000000 0.000000 0.500000
v 1.000000 0.000000 0.500000
v -1.000000 0.000000 -0.500000
v 1.000000 0.000000 -0.500000
v -0.913246 0.000000 0.500000
v -0.913246 0.000000 -0.500000
v 0.930734 0.000000 0.500000
v 0.930734 0.000000 -0.500000
v -1.000000 0.000000 0.431662
v 1.000000 0.000000 0.431662
v -0.913246 0.000000 0.431662
v 0.930734 0.000000 0.431662
v 1.000000 0.000000 -0.409532
v -0.913246 0.000000 -0.409532
v 0.930734 0.000000 -0.409532
v -1.000000 0.000000 -0.409532
v -0.110161 0.000000 -0.500000
v -0.110161 0.000000 0.500000
v -0.110161 0.000000 0.431662
v -0.110161 0.000000 -0.409532
v 0.055897 0.000000 0.500000
v 0.055897 0.000000 -0.500000
v 0.055897 0.000000 0.431662
v 0.055897 0.000000 -0.409532
v -1.000000 0.699724 0.431662
v -1.000000 0.699724 0.500000
v 0.930734 0.699724 0.500000
v 1.000000 0.699724 0.500000
v 1.000000 0.699724 -0.409532
v 1.000000 0.699724 -0.500000
v -0.913246 0.699724 -0.500000
v -1.000000 0.699724 -0.500000
v -0.913246 0.699724 0.500000
v -0.913246 0.699724 -0.409532
v 0.930734 0.699724 -0.500000
v 0.930734 0.699724 -0.409532
v -1.000000 0.699724 -0.409532
v 1.000000 0.699724 0.431662
v -0.913246 0.699724 0.431662
v 0.930734 0.699724 0.431662
vn 1.0000 -0.0000 -0.0000
vn -1.0000 -0.0000 -0.0000
vn -0.0000 1.0000 -0.0000
vn -0.0000 -0.0000 1.0000
vn -0.0000 -0.0000 -1.0000
vt 0.043377 1.000000
vt 0.043377 0.909532
vt 0.965367 0.000000
vt 0.965367 0.068338
vt 0.965367 0.909532
vt 0.527948 1.000000
vt 0.527948 0.909532
vt 0.527948 0.068338
vt 0.527948 0.000000
vt 0.000000 0.000000
vt 0.043377 0.068338
vt 0.043377 0.000000
vt 0.444919 0.068338
vt 0.444919 0.000000
vt 0.444919 0.909532
vt 0.444919 1.000000
vt 1.000000 0.909532
vt 0.965367 1.000000
vt 0.000000 1.000000
vt 0.000000 0.909532
vt 0.000000 0.068338
vt 1.000000 0.000000
vt 1.000000 0.068338
vt 1.000000 1.000000
s 0
f 6/1/1 34/2/1 14/2/1
f 7/3/2 40/4/2 12/4/2
f 15/5/3 22/6/3 24/7/3
f 7/3/3 23/8/3 21/9/3
f 16/10/2 32/10/2 3/10/2
f 11/11/1 33/12/1 5/12/1
f 12/4/3 24/7/3 23/8/3
f 12/4/2 36/5/2 15/5/2
f 5/10/4 26/10/4 1/10/4
f 19/13/3 14/2/3 11/11/3
f 18/14/3 11/11/3 5/12/3
f 20/15/3 6/1/3 14/2/3
f 19/13/3 24/7/3 20/15/3
f 18/14/3 23/8/3 19/13/3
f 24/7/3 17/16/3 20/15/3
f 29/17/3 35/18/3 36/5/3
f 34/2/3 32/19/3 37/20/3
f 33/12/3 25/21/3 26/10/3
f 28/22/3 40/4/3 27/3/3
f 39/11/3 37/20/3 25/21/3
f 38/23/3 36/5/3 40/4/3
f 1/10/2 25/10/2 9/10/2
f 8/10/5 30/10/5 4/10/5
f 2/10/4 27/10/4 7/10/4
f 15/5/2 35/18/2 8/18/2
f 4/10/1 29/10/1 13/10/1
f 13/10/1 38/10/1 10/10/1
f 9/10/2 37/10/2 16/10/2
f 3/10/5 31/10/5 6/10/5
f 14/2/1 39/11/1 11/11/1
f 10/10/1 28/10/1 2/10/1
f 6/1/1 31/1/1 34/2/1
f 7/3/2 27/3/2 40/4/2
f 15/5/3 8/18/3 22/6/3
f 7/3/3 12/4/3 23/8/3
f 16/10/2 37/10/2 32/10/2
f 11/11/1 39/11/1 33/12/1
f 12/4/3 15/5/3 24/7/3
f 12/4/2 40/4/2 36/5/2
f 5/10/4 33/10/4 26/10/4
f 19/13/3 20/15/3 14/2/3
f 18/14/3 19/13/3 11/11/3
f 20/15/3 17/16/3 6/1/3
f 19/13/3 23/8/3 24/7/3
f 18/14/3 21/9/3 23/8/3
f 24/7/3 22/6/3 17/16/3
f 29/17/3 30/24/3 35/18/3
f 34/2/3 31/1/3 32/19/3
f 33/12/3 39/11/3 25/21/3
f 28/22/3 38/23/3 40/4/3
f 39/11/3 34/2/3 37/20/3
f 38/23/3 29/17/3 36/5/3
f 1/10/2 26/10/2 25/10/2
f 8/10/5 35/10/5 30/10/5
f 2/10/4 28/10/4 27/10/4
f 15/5/2 36/5/2 35/18/2
f 4/10/1 30/10/1 29/10/1
f 13/10/1 29/10/1 38/10/1
f 9/10/2 25/10/2 37/10/2
f 3/10/5 32/10/5 31/10/5
f 14/2/1 34/2/1 39/11/1
f 10/10/1 38/10/1 28/10/1
