# Blender 4.0.2
# www.blender.org
mtllib mazeFloorDown.mtl
o Plane
v -1.000000 0.000000 0.500000
v 1.000000 0.000000 0.500000
v -1.000000 0.000000 -0.500000
v 1.000000 0.000000 -0.500000
v -0.913246 0.000000 0.500000
v -0.913246 0.000000 -0.500000
v 0.930734 0.000000 0.500000
v 0.930734 0.000000 -0.500000
v -1.000000 0.000000 0.431662
v 1.000000 0.000000 0.431662
v -0.913246 0.000000 0.431662
v 0.930734 0.000000 0.431662
v 1.000000 0.000000 -0.409532
v -0.913246 0.000000 -0.409532
v 0.930734 0.000000 -0.409532
v -1.000000 0.000000 -0.409532
v -0.110161 0.000000 -0.500000
v -0.110161 0.000000 0.500000
v -0.110161 0.000000 0.431662
v -0.110161 0.000000 -0.409532
v 0.055897 0.000000 0.500000
v 0.055897 0.000000 -0.500000
v 0.055897 0.000000 0.431662
v 0.055897 0.000000 -0.409532
v -1.000000 0.746537 0.431662
v -1.000000 0.746537 0.500000
v 0.930734 0.746537 0.500000
v 1.000000 0.746537 0.500000
v -0.913246 0.746537 0.500000
v 0.055897 0.746537 0.500000
v 1.000000 0.746537 0.431662
v -0.913246 0.746537 0.431662
v 0.930734 0.746537 0.431662
v -0.110161 0.746537 0.431662
v -0.110161 0.746537 0.500000
v 0.055897 0.746537 0.431662
vn -0.0000 1.0000 -0.0000
vn -0.0000 -0.0000 1.0000
vn -0.0000 -0.0000 -1.0000
vn -1.0000 -0.0000 -0.0000
vn 1.0000 -0.0000 -0.0000
vt 1.000000 0.909532
vt 0.965367 1.000000
vt 0.965367 0.909532
vt 0.043377 0.909532
vt 0.000000 1.000000
vt 0.000000 0.909532
vt 0.527948 1.000000
vt 0.527948 0.909532
vt 0.000000 0.000000
vt 0.043377 0.068338
vt 0.444919 0.068338
vt 0.965367 0.068338
vt 0.527948 0.068338
vt 0.000000 0.068338
vt 1.000000 0.068338
vt 0.444919 0.909532
vt 0.043377 1.000000
vt 0.444919 1.000000
vt 0.965367 0.000000
vt 0.527948 0.000000
vt 0.043377 0.000000
vt 1.000000 0.000000
vt 0.444919 0.000000
vt 1.000000 1.000000
s 0
f 13/1/1 8/2/1 15/3/1
f 14/4/1 3/5/1 16/6/1
f 15/3/1 22/7/1 24/8/1
f 5/9/2 26/9/2 1/9/2
f 11/10/3 34/11/3 19/11/3
f 21/9/2 35/9/2 18/9/2
f 12/12/1 24/8/1 23/13/1
f 11/10/1 16/6/1 9/14/1
f 10/15/1 15/3/1 12/12/1
f 19/11/1 14/4/1 11/10/1
f 7/9/2 30/9/2 21/9/2
f 20/16/1 6/17/1 14/4/1
f 19/11/1 24/8/1 20/16/1
f 1/9/4 25/9/4 9/9/4
f 24/8/1 17/18/1 20/16/1
f 27/19/1 36/13/1 30/20/1
f 29/21/1 25/14/1 26/9/1
f 28/22/1 33/12/1 27/19/1
f 35/23/1 32/10/1 29/21/1
f 35/23/1 36/13/1 34/11/1
f 10/9/5 28/9/5 2/9/5
f 2/9/2 27/9/2 7/9/2
f 18/9/2 29/9/2 5/9/2
f 9/14/3 32/10/3 11/10/3
f 19/11/3 36/13/3 23/13/3
f 23/13/3 33/12/3 12/12/3
f 12/12/3 31/15/3 10/15/3
f 13/1/1 4/24/1 8/2/1
f 14/4/1 6/17/1 3/5/1
f 15/3/1 8/2/1 22/7/1
f 5/9/2 29/9/2 26/9/2
f 11/10/3 32/10/3 34/11/3
f 21/9/2 30/9/2 35/9/2
f 12/12/1 15/3/1 24/8/1
f 11/10/1 14/4/1 16/6/1
f 10/15/1 13/1/1 15/3/1
f 19/11/1 20/16/1 14/4/1
f 7/9/2 27/9/2 30/9/2
f 20/16/1 17/18/1 6/17/1
f 19/11/1 23/13/1 24/8/1
f 1/9/4 26/9/4 25/9/4
f 24/8/1 22/7/1 17/18/1
f 27/19/1 33/12/1 36/13/1
f 29/21/1 32/10/1 25/14/1
f 28/22/1 31/15/1 33/12/1
f 35/23/1 34/11/1 32/10/1
f 35/23/1 30/20/1 36/13/1
f 10/9/5 31/9/5 28/9/5
f 2/9/2 28/9/2 27/9/2
f 18/9/2 35/9/2 29/9/2
f 9/14/3 25/14/3 32/10/3
f 19/11/3 34/11/3 36/13/3
f 23/13/3 36/13/3 33/12/3
f 12/12/3 33/12/3 31/15/3
