# Blender 4.0.2
# www.blender.org
mtllib mazeFloorRightLeftDown.mtl
o Plane
v -1.000000 0.000000 0.500000
v 1.000000 0.000000 0.500000
v -1.000000 0.000000 -0.500000
v 1.000000 0.000000 -0.500000
v -0.913246 0.000000 0.500000
v -0.913246 0.000000 -0.500000
v 0.930734 0.000000 0.500000
v 0.930734 0.000000 -0.500000
v -1.000000 0.000000 0.431662
v 1.000000 0.000000 0.431662
v -0.913246 0.000000 0.431662
v 0.930734 0.000000 0.431662
v 1.000000 0.000000 -0.409532
v -0.913246 0.000000 -0.409532
v 0.930734 0.000000 -0.409532
v -1.000000 0.000000 -0.409532
v -0.110161 0.000000 -0.500000
v -0.110161 0.000000 0.500000
v -0.110161 0.000000 0.431662
v -0.110161 0.000000 -0.409532
v 0.055897 0.000000 0.500000
v 0.055897 0.000000 -0.500000
v 0.055897 0.000000 0.431662
v 0.055897 0.000000 -0.409532
v -1.000000 0.662576 0.431662
v -1.000000 0.662576 0.500000
v 0.930734 0.662576 0.500000
v 1.000000 0.662576 0.500000
v 1.000000 0.662576 -0.409532
v 1.000000 0.662576 -0.500000
v -0.913246 0.662576 -0.500000
v -1.000000 0.662576 -0.500000
v -0.913246 0.662576 0.500000
v -0.913246 0.662576 -0.409532
v 0.930734 0.662576 -0.500000
v 0.930734 0.662576 -0.409532
v -1.000000 0.662576 -0.409532
v 1.000000 0.662576 0.431662
v -0.913246 0.662576 0.431662
v 0.930734 0.662576 0.431662
v 0.055897 0.648291 0.500000
v 0.930734 0.648291 0.500000
v -0.913246 0.648291 0.500000
v -0.913246 0.648291 0.431662
v 0.930734 0.648291 0.431662
v -0.110161 0.648291 0.431662
v -0.110161 0.648291 0.500000
v 0.055897 0.648291 0.431662
vn -0.0000 -0.0000 -1.0000
vn -1.0000 -0.0000 -0.0000
vn -0.0000 1.0000 -0.0000
vn 1.0000 -0.0000 -0.0000
vn -0.0000 -0.0000 1.0000
vt 0.000000 0.000000
vt 0.965367 0.909532
vt 0.527948 1.000000
vt 0.527948 0.909532
vt 0.527948 0.068338
vt 0.965367 0.068338
vt 0.965367 1.000000
vt 0.444919 0.068338
vt 0.043377 0.909532
vt 0.043377 0.068338
vt 0.965367 0.000000
vt 0.444919 0.909532
vt 0.043377 1.000000
vt 0.444919 1.000000
vt 1.000000 0.909532
vt 0.000000 1.000000
vt 0.000000 0.909532
vt 0.043377 0.000000
vt 0.000000 0.068338
vt 1.000000 0.000000
vt 1.000000 0.068338
vt 0.527948 0.000000
vt 0.444919 0.000000
vt 1.000000 1.000000
s 0
f 3/1/1 31/1/1 6/1/1
f 9/1/2 37/1/2 16/1/2
f 15/2/3 22/3/3 24/4/3
f 23/5/1 45/6/1 12/6/1
f 13/1/4 38/1/4 10/1/4
f 4/1/4 29/1/4 13/1/4
f 12/6/3 24/4/3 23/5/3
f 15/2/2 35/7/2 8/7/2
f 2/1/5 27/1/5 7/1/5
f 19/8/3 14/9/3 11/10/3
f 12/6/4 42/11/4 7/11/4
f 20/12/3 6/13/3 14/9/3
f 19/8/3 24/4/3 20/12/3
f 19/8/1 48/5/1 23/5/1
f 24/4/3 17/14/3 20/12/3
f 29/15/3 35/7/3 36/2/3
f 34/9/3 32/16/3 37/17/3
f 33/18/3 25/19/3 26/1/3
f 28/20/3 40/6/3 27/11/3
f 39/10/3 37/17/3 25/19/3
f 38/21/3 36/2/3 40/6/3
f 14/9/4 39/10/4 11/10/4
f 10/1/4 28/1/4 2/1/4
f 5/1/5 26/1/5 1/1/5
f 12/6/2 36/2/2 15/2/2
f 11/10/4 33/18/4 5/18/4
f 16/1/2 32/1/2 3/1/2
f 7/11/2 40/6/2 12/6/2
f 6/13/4 34/9/4 14/9/4
f 1/1/2 25/1/2 9/1/2
f 8/1/1 30/1/1 4/1/1
f 42/11/3 48/5/3 41/22/3
f 47/23/3 44/10/3 43/18/3
f 47/23/3 48/5/3 46/8/3
f 21/1/5 47/1/5 18/1/5
f 7/1/5 41/1/5 21/1/5
f 18/1/5 43/1/5 5/1/5
f 11/10/1 46/8/1 19/8/1
f 5/18/2 44/10/2 11/10/2
f 3/1/1 32/1/1 31/1/1
f 9/1/2 25/1/2 37/1/2
f 15/2/3 8/7/3 22/3/3
f 23/5/1 48/5/1 45/6/1
f 13/1/4 29/1/4 38/1/4
f 4/1/4 30/1/4 29/1/4
f 12/6/3 15/2/3 24/4/3
f 15/2/2 36/2/2 35/7/2
f 2/1/5 28/1/5 27/1/5
f 19/8/3 20/12/3 14/9/3
f 12/6/4 45/6/4 42/11/4
f 20/12/3 17/14/3 6/13/3
f 19/8/3 23/5/3 24/4/3
f 19/8/1 46/8/1 48/5/1
f 24/4/3 22/3/3 17/14/3
f 29/15/3 30/24/3 35/7/3
f 34/9/3 31/13/3 32/16/3
f 33/18/3 39/10/3 25/19/3
f 28/20/3 38/21/3 40/6/3
f 39/10/3 34/9/3 37/17/3
f 38/21/3 29/15/3 36/2/3
f 14/9/4 34/9/4 39/10/4
f 10/1/4 38/1/4 28/1/4
f 5/1/5 33/1/5 26/1/5
f 12/6/2 40/6/2 36/2/2
f 11/10/4 39/10/4 33/18/4
f 16/1/2 37/1/2 32/1/2
f 7/11/2 27/11/2 40/6/2
f 6/13/4 31/13/4 34/9/4
f 1/1/2 26/1/2 25/1/2
f 8/1/1 35/1/1 30/1/1
f 42/11/3 45/6/3 48/5/3
f 47/23/3 46/8/3 44/10/3
f 47/23/3 41/22/3 48/5/3
f 21/1/5 41/1/5 47/1/5
f 7/1/5 42/1/5 41/1/5
f 18/1/5 47/1/5 43/1/5
f 11/10/1 44/10/1 46/8/1
f 5/18/2 43/18/2 44/10/2
