# Blender 4.0.2
# www.blender.org
mtllib mazeFloorLeft.mtl
o Plane
v -1.000000 0.000000 0.500000
v 1.000000 0.000000 0.500000
v -1.000000 0.000000 -0.500000
v 1.000000 0.000000 -0.500000
v -0.913246 0.000000 0.500000
v -0.913246 0.000000 -0.500000
v 0.930734 0.000000 0.500000
v 0.930734 0.000000 -0.500000
v -1.000000 0.000000 0.431662
v 1.000000 0.000000 0.431662
v -0.913246 0.000000 0.431662
v 0.930734 0.000000 0.431662
v 1.000000 0.000000 -0.409532
v -0.913246 0.000000 -0.409532
v 0.930734 0.000000 -0.409532
v -1.000000 0.000000 -0.409532
v -1.000000 0.875411 0.431662
v -1.000000 0.875411 0.500000
v -0.913246 0.875411 -0.500000
v -1.000000 0.875411 -0.500000
v -0.913246 0.875411 0.500000
v -0.913246 0.875411 -0.409532
v -1.000000 0.875411 -0.409532
v -0.913246 0.875411 0.431662
vn -0.0000 1.0000 -0.0000
vn 1.0000 -0.0000 -0.0000
vn -1.0000 -0.0000 -0.0000
vn -0.0000 -0.0000 1.0000
vn -0.0000 -0.0000 -1.0000
vt 1.000000 0.909532
vt 0.965367 1.000000
vt 0.965367 0.909532
vt 0.043377 1.000000
vt 0.043377 0.909532
vt 0.965367 0.000000
vt 0.043377 0.068338
vt 0.043377 0.000000
vt 0.000000 0.000000
vt 1.000000 0.000000
vt 0.965367 0.068338
vt 1.000000 0.068338
vt 0.000000 1.000000
vt 0.000000 0.909532
vt 0.000000 0.068338
vt 1.000000 1.000000
s 0
f 13/1/1 8/2/1 15/3/1
f 6/4/2 22/5/2 14/5/2
f 15/3/1 6/4/1 14/5/1
f 7/6/1 11/7/1 5/8/1
f 9/9/3 23/9/3 16/9/3
f 2/10/1 12/11/1 7/6/1
f 12/11/1 14/5/1 11/7/1
f 11/7/2 21/8/2 5/8/2
f 10/12/1 15/3/1 12/11/1
f 22/5/1 20/13/1 23/14/1
f 21/8/1 17/15/1 18/9/1
f 24/7/1 23/14/1 17/15/1
f 5/9/4 18/9/4 1/9/4
f 1/9/3 17/9/3 9/9/3
f 16/9/3 20/9/3 3/9/3
f 14/5/2 24/7/2 11/7/2
f 3/9/5 19/9/5 6/9/5
f 13/1/1 4/16/1 8/2/1
f 6/4/2 19/4/2 22/5/2
f 15/3/1 8/2/1 6/4/1
f 7/6/1 12/11/1 11/7/1
f 9/9/3 17/9/3 23/9/3
f 2/10/1 10/12/1 12/11/1
f 12/11/1 15/3/1 14/5/1
f 11/7/2 24/7/2 21/8/2
f 10/12/1 13/1/1 15/3/1
f 22/5/1 19/4/1 20/13/1
f 21/8/1 24/7/1 17/15/1
f 24/7/1 22/5/1 23/14/1
f 5/9/4 21/9/4 18/9/4
f 1/9/3 18/9/3 17/9/3
f 16/9/3 23/9/3 20/9/3
f 14/5/2 22/5/2 24/7/2
f 3/9/5 20/9/5 19/9/5
