# Blender 4.0.2
# www.blender.org
mtllib mazeFloorTop.mtl
o Plane
v -1.000000 0.000000 0.500000
v 1.000000 0.000000 0.500000
v -1.000000 0.000000 -0.500000
v 1.000000 0.000000 -0.500000
v -0.913246 0.000000 0.500000
v -0.913246 0.000000 -0.500000
v 0.930734 0.000000 0.500000
v 0.930734 0.000000 -0.500000
v -1.000000 0.000000 0.431662
v 1.000000 0.000000 0.431662
v -0.913246 0.000000 0.431662
v 0.930734 0.000000 0.431662
v 1.000000 0.000000 -0.409532
v -0.913246 0.000000 -0.409532
v 0.930734 0.000000 -0.409532
v -1.000000 0.000000 -0.409532
v -0.110161 0.000000 -0.500000
v -0.110161 0.000000 0.500000
v -0.110161 0.000000 0.431662
v -0.110161 0.000000 -0.409532
v 0.055897 0.000000 0.500000
v 0.055897 0.000000 -0.500000
v 0.055897 0.000000 0.431662
v 0.055897 0.000000 -0.409532
v 1.000000 0.656472 -0.409532
v 1.000000 0.656472 -0.500000
v -0.913246 0.656472 -0.500000
v -1.000000 0.656472 -0.500000
v -0.110161 0.656472 -0.500000
v -0.913246 0.656472 -0.409532
v 0.930734 0.656472 -0.500000
v 0.930734 0.656472 -0.409532
v -1.000000 0.656472 -0.409532
v -0.110161 0.656472 -0.409532
v 0.055897 0.656472 -0.500000
v 0.055897 0.656472 -0.409532
vn -0.0000 -0.0000 -1.0000
vn -0.0000 -0.0000 1.0000
vn -0.0000 1.0000 -0.0000
vn 1.0000 -0.0000 -0.0000
vn -1.0000 -0.0000 -0.0000
vt 0.000000 0.000000
vt 0.043377 0.909532
vt 0.000000 0.909532
vt 0.965367 0.000000
vt 0.527948 0.068338
vt 0.527948 0.000000
vt 0.043377 0.000000
vt 0.000000 0.068338
vt 1.000000 0.000000
vt 0.965367 0.068338
vt 0.527948 0.909532
vt 0.043377 0.068338
vt 1.000000 0.068338
vt 0.965367 0.909532
vt 0.444919 0.068338
vt 0.444919 0.000000
vt 0.444919 0.909532
vt 1.000000 0.909532
vt 0.965367 1.000000
vt 0.000000 1.000000
vt 0.527948 1.000000
vt 0.043377 1.000000
vt 0.444919 1.000000
vt 1.000000 1.000000
s 0
f 6/1/1 29/1/1 17/1/1
f 14/2/2 33/3/2 16/3/2
f 22/1/1 31/1/1 8/1/1
f 7/4/3 23/5/3 21/6/3
f 5/7/3 9/8/3 1/1/3
f 2/9/3 12/10/3 7/4/3
f 12/10/3 24/11/3 23/5/3
f 11/12/3 16/3/3 9/8/3
f 10/13/3 15/14/3 12/10/3
f 19/15/3 14/2/3 11/12/3
f 18/16/3 11/12/3 5/7/3
f 8/1/1 26/1/1 4/1/1
f 19/15/3 24/11/3 20/17/3
f 18/16/3 23/5/3 19/15/3
f 20/17/2 30/2/2 14/2/2
f 25/18/3 31/19/3 32/14/3
f 30/2/3 28/20/3 33/3/3
f 32/14/3 35/21/3 36/11/3
f 34/17/3 27/22/3 30/2/3
f 36/11/3 29/23/3 34/17/3
f 4/1/4 25/1/4 13/1/4
f 13/18/2 32/14/2 15/14/2
f 3/1/1 27/1/1 6/1/1
f 16/1/5 28/1/5 3/1/5
f 24/11/2 34/17/2 20/17/2
f 15/14/2 36/11/2 24/11/2
f 17/1/1 35/1/1 22/1/1
f 6/1/1 27/1/1 29/1/1
f 14/2/2 30/2/2 33/3/2
f 22/1/1 35/1/1 31/1/1
f 7/4/3 12/10/3 23/5/3
f 5/7/3 11/12/3 9/8/3
f 2/9/3 10/13/3 12/10/3
f 12/10/3 15/14/3 24/11/3
f 11/12/3 14/2/3 16/3/3
f 10/13/3 13/18/3 15/14/3
f 19/15/3 20/17/3 14/2/3
f 18/16/3 19/15/3 11/12/3
f 8/1/1 31/1/1 26/1/1
f 19/15/3 23/5/3 24/11/3
f 18/16/3 21/6/3 23/5/3
f 20/17/2 34/17/2 30/2/2
f 25/18/3 26/24/3 31/19/3
f 30/2/3 27/22/3 28/20/3
f 32/14/3 31/19/3 35/21/3
f 34/17/3 29/23/3 27/22/3
f 36/11/3 35/21/3 29/23/3
f 4/1/4 26/1/4 25/1/4
f 13/18/2 25/18/2 32/14/2
f 3/1/1 28/1/1 27/1/1
f 16/1/5 33/1/5 28/1/5
f 24/11/2 36/11/2 34/17/2
f 15/14/2 32/14/2 36/11/2
f 17/1/1 29/1/1 35/1/1
