# Blender 4.0.2
# www.blender.org
mtllib mazeFloorRightTop.mtl
o Plane
v -1.000000 0.000000 0.500000
v 1.000000 0.000000 0.500000
v -1.000000 0.000000 -0.500000
v 1.000000 0.000000 -0.500000
v -0.913246 0.000000 0.500000
v -0.913246 0.000000 -0.500000
v 0.930734 0.000000 0.500000
v 0.930734 0.000000 -0.500000
v -1.000000 0.000000 0.431662
v 1.000000 0.000000 0.431662
v -0.913246 0.000000 0.431662
v 0.930734 0.000000 0.431662
v 1.000000 0.000000 -0.409532
v -0.913246 0.000000 -0.409532
v 0.930734 0.000000 -0.409532
v -1.000000 0.000000 -0.409532
v -0.110161 0.000000 -0.500000
v -0.110161 0.000000 0.500000
v -0.110161 0.000000 0.431662
v -0.110161 0.000000 -0.409532
v 0.055897 0.000000 0.500000
v 0.055897 0.000000 -0.500000
v 0.055897 0.000000 0.431662
v 0.055897 0.000000 -0.409532
v 0.930734 0.785930 0.500000
v 1.000000 0.785930 0.500000
v 1.000000 0.785930 -0.409532
v 1.000000 0.785930 -0.500000
v -0.913246 0.785930 -0.500000
v -1.000000 0.785930 -0.500000
v -0.110161 0.785930 -0.500000
v -0.913246 0.785930 -0.409532
v 0.930734 0.785930 -0.500000
v 0.930734 0.785930 -0.409532
v 1.000000 0.785930 0.431662
v 0.930734 0.785930 0.431662
v -1.000000 0.785930 -0.409532
v -0.110161 0.785930 -0.409532
v 0.055897 0.785930 -0.500000
v 0.055897 0.785930 -0.409532
vn -0.0000 -0.0000 1.0000
vn -1.0000 -0.0000 -0.0000
vn -0.0000 1.0000 -0.0000
vn 1.0000 -0.0000 -0.0000
vn -0.0000 -0.0000 -1.0000
vt 0.527948 0.909532
vt 0.444919 0.909532
vt 0.965367 0.909532
vt 0.965367 0.068338
vt 0.965367 0.000000
vt 0.527948 0.068338
vt 0.527948 0.000000
vt 0.043377 0.000000
vt 0.000000 0.068338
vt 0.000000 0.000000
vt 0.043377 0.068338
vt 0.000000 0.909532
vt 0.444919 0.068338
vt 0.043377 0.909532
vt 0.444919 0.000000
vt 1.000000 0.909532
vt 0.965367 1.000000
vt 0.000000 1.000000
vt 0.527948 1.000000
vt 1.000000 0.000000
vt 1.000000 0.068338
vt 0.043377 1.000000
vt 0.444919 1.000000
vt 1.000000 1.000000
s 0
f 24/1/1 38/2/1 20/2/1
f 15/3/1 40/1/1 24/1/1
f 12/4/2 34/3/2 15/3/2
f 7/5/3 23/6/3 21/7/3
f 5/8/3 9/9/3 1/10/3
f 10/10/4 26/10/4 2/10/4
f 12/4/3 24/1/3 23/6/3
f 11/11/3 16/12/3 9/9/3
f 3/10/5 29/10/5 6/10/5
f 19/13/3 14/14/3 11/11/3
f 18/15/3 11/11/3 5/8/3
f 22/10/5 33/10/5 8/10/5
f 19/13/3 24/1/3 20/2/3
f 18/15/3 23/6/3 19/13/3
f 13/10/4 35/10/4 10/10/4
f 27/16/3 33/17/3 34/3/3
f 32/14/3 30/18/3 37/12/3
f 34/3/3 39/19/3 40/1/3
f 26/20/3 36/4/3 25/5/3
f 35/21/3 34/3/3 36/4/3
f 38/2/3 29/22/3 32/14/3
f 40/1/3 31/23/3 38/2/3
f 6/10/5 31/10/5 17/10/5
f 16/10/2 30/10/2 3/10/2
f 7/5/2 36/4/2 12/4/2
f 20/2/1 32/14/1 14/14/1
f 14/14/1 37/12/1 16/12/1
f 8/10/5 28/10/5 4/10/5
f 2/10/1 25/10/1 7/10/1
f 17/10/5 39/10/5 22/10/5
f 4/10/4 27/10/4 13/10/4
f 24/1/1 40/1/1 38/2/1
f 15/3/1 34/3/1 40/1/1
f 12/4/2 36/4/2 34/3/2
f 7/5/3 12/4/3 23/6/3
f 5/8/3 11/11/3 9/9/3
f 10/10/4 35/10/4 26/10/4
f 12/4/3 15/3/3 24/1/3
f 11/11/3 14/14/3 16/12/3
f 3/10/5 30/10/5 29/10/5
f 19/13/3 20/2/3 14/14/3
f 18/15/3 19/13/3 11/11/3
f 22/10/5 39/10/5 33/10/5
f 19/13/3 23/6/3 24/1/3
f 18/15/3 21/7/3 23/6/3
f 13/10/4 27/10/4 35/10/4
f 27/16/3 28/24/3 33/17/3
f 32/14/3 29/22/3 30/18/3
f 34/3/3 33/17/3 39/19/3
f 26/20/3 35/21/3 36/4/3
f 35/21/3 27/16/3 34/3/3
f 38/2/3 31/23/3 29/22/3
f 40/1/3 39/19/3 31/23/3
f 6/10/5 29/10/5 31/10/5
f 16/10/2 37/10/2 30/10/2
f 7/5/2 25/5/2 36/4/2
f 20/2/1 38/2/1 32/14/1
f 14/14/1 32/14/1 37/12/1
f 8/10/5 33/10/5 28/10/5
f 2/10/1 26/10/1 25/10/1
f 17/10/5 31/10/5 39/10/5
f 4/10/4 28/10/4 27/10/4
